<mxfile host="Electron" agent="Mozilla/5.0 (Windows NT 10.0; Win64; x64) AppleWebKit/537.36 (KHTML, like Gecko) draw.io/24.7.17 Chrome/128.0.6613.36 Electron/32.0.1 Safari/537.36" version="24.7.17">
  <diagram name="Страница — 1" id="vS0J8y-sKBYsqmLGhbXe">
    <mxGraphModel dx="1050" dy="1496" grid="1" gridSize="10" guides="1" tooltips="1" connect="1" arrows="1" fold="1" page="1" pageScale="1" pageWidth="1169" pageHeight="827" math="0" shadow="0">
      <root>
        <mxCell id="0" />
        <mxCell id="1" parent="0" />
        <object placeholders="1" c4Name="Мобильное приложение" c4Type="ContainerScopeBoundary" c4Application="Container" label="&lt;font style=&quot;font-size: 16px&quot;&gt;&lt;b&gt;&lt;div style=&quot;text-align: left&quot;&gt;%c4Name%&lt;/div&gt;&lt;/b&gt;&lt;/font&gt;&lt;div style=&quot;text-align: left&quot;&gt;[%c4Application%]&lt;/div&gt;" id="ezNgtbDygCYAv94OnKdL-1">
          <mxCell style="rounded=1;fontSize=11;whiteSpace=wrap;html=1;dashed=1;arcSize=20;fillColor=none;strokeColor=#666666;fontColor=#333333;labelBackgroundColor=none;align=left;verticalAlign=bottom;labelBorderColor=none;spacingTop=0;spacing=10;dashPattern=8 4;metaEdit=1;rotatable=0;perimeter=rectanglePerimeter;noLabel=0;labelPadding=0;allowArrows=0;connectable=0;expand=0;recursiveResize=0;editable=1;pointerEvents=0;absoluteArcSize=1;points=[[0.25,0,0],[0.5,0,0],[0.75,0,0],[1,0.25,0],[1,0.5,0],[1,0.75,0],[0.75,1,0],[0.5,1,0],[0.25,1,0],[0,0.75,0],[0,0.5,0],[0,0.25,0]];" vertex="1" parent="1">
            <mxGeometry x="1150" y="115" width="890" height="630" as="geometry" />
          </mxCell>
        </object>
        <mxCell id="ezNgtbDygCYAv94OnKdL-2" style="edgeStyle=orthogonalEdgeStyle;rounded=0;orthogonalLoop=1;jettySize=auto;html=1;entryX=0.5;entryY=0;entryDx=0;entryDy=0;" edge="1" parent="1" source="ezNgtbDygCYAv94OnKdL-4" target="ezNgtbDygCYAv94OnKdL-12">
          <mxGeometry relative="1" as="geometry" />
        </mxCell>
        <mxCell id="ezNgtbDygCYAv94OnKdL-3" style="edgeStyle=orthogonalEdgeStyle;rounded=0;orthogonalLoop=1;jettySize=auto;html=1;entryX=0.5;entryY=1;entryDx=0;entryDy=0;" edge="1" parent="1" source="ezNgtbDygCYAv94OnKdL-4" target="ezNgtbDygCYAv94OnKdL-11">
          <mxGeometry relative="1" as="geometry" />
        </mxCell>
        <mxCell id="ezNgtbDygCYAv94OnKdL-4" value="Экран коллекций" style="rounded=1;whiteSpace=wrap;html=1;" vertex="1" parent="1">
          <mxGeometry x="1280" y="365" width="120" height="60" as="geometry" />
        </mxCell>
        <mxCell id="ezNgtbDygCYAv94OnKdL-5" style="edgeStyle=orthogonalEdgeStyle;rounded=0;orthogonalLoop=1;jettySize=auto;html=1;entryX=0.5;entryY=0;entryDx=0;entryDy=0;" edge="1" parent="1" source="ezNgtbDygCYAv94OnKdL-9" target="ezNgtbDygCYAv94OnKdL-4">
          <mxGeometry relative="1" as="geometry" />
        </mxCell>
        <mxCell id="ezNgtbDygCYAv94OnKdL-6" style="edgeStyle=orthogonalEdgeStyle;rounded=0;orthogonalLoop=1;jettySize=auto;html=1;entryX=0;entryY=0.5;entryDx=0;entryDy=0;" edge="1" parent="1" source="ezNgtbDygCYAv94OnKdL-9" target="ezNgtbDygCYAv94OnKdL-11">
          <mxGeometry relative="1" as="geometry" />
        </mxCell>
        <mxCell id="ezNgtbDygCYAv94OnKdL-7" style="edgeStyle=orthogonalEdgeStyle;rounded=0;orthogonalLoop=1;jettySize=auto;html=1;entryX=0;entryY=0.5;entryDx=0;entryDy=0;" edge="1" parent="1" source="ezNgtbDygCYAv94OnKdL-9" target="ezNgtbDygCYAv94OnKdL-19">
          <mxGeometry relative="1" as="geometry" />
        </mxCell>
        <mxCell id="ezNgtbDygCYAv94OnKdL-8" style="edgeStyle=orthogonalEdgeStyle;rounded=0;orthogonalLoop=1;jettySize=auto;html=1;entryX=0;entryY=0.5;entryDx=0;entryDy=0;" edge="1" parent="1" source="ezNgtbDygCYAv94OnKdL-9" target="ezNgtbDygCYAv94OnKdL-22">
          <mxGeometry relative="1" as="geometry">
            <Array as="points">
              <mxPoint x="1440" y="295" />
              <mxPoint x="1440" y="655" />
            </Array>
          </mxGeometry>
        </mxCell>
        <mxCell id="ezNgtbDygCYAv94OnKdL-9" value="Экран авторизации" style="rounded=1;whiteSpace=wrap;html=1;" vertex="1" parent="1">
          <mxGeometry x="1280" y="265" width="120" height="60" as="geometry" />
        </mxCell>
        <mxCell id="ezNgtbDygCYAv94OnKdL-10" style="edgeStyle=orthogonalEdgeStyle;rounded=0;orthogonalLoop=1;jettySize=auto;html=1;entryX=0;entryY=0.5;entryDx=0;entryDy=0;" edge="1" parent="1" source="ezNgtbDygCYAv94OnKdL-11" target="ezNgtbDygCYAv94OnKdL-17">
          <mxGeometry relative="1" as="geometry" />
        </mxCell>
        <mxCell id="ezNgtbDygCYAv94OnKdL-11" value="Экран добавления стикера" style="rounded=1;whiteSpace=wrap;html=1;" vertex="1" parent="1">
          <mxGeometry x="1520" y="265" width="120" height="60" as="geometry" />
        </mxCell>
        <mxCell id="ezNgtbDygCYAv94OnKdL-12" value="Экран просмотра информации о стикере" style="rounded=1;whiteSpace=wrap;html=1;" vertex="1" parent="1">
          <mxGeometry x="1280" y="500.5" width="120" height="60" as="geometry" />
        </mxCell>
        <mxCell id="ezNgtbDygCYAv94OnKdL-13" style="edgeStyle=orthogonalEdgeStyle;rounded=0;orthogonalLoop=1;jettySize=auto;html=1;entryX=1;entryY=0.5;entryDx=0;entryDy=0;exitX=0.5;exitY=1;exitDx=0;exitDy=0;" edge="1" parent="1" source="ezNgtbDygCYAv94OnKdL-17" target="ezNgtbDygCYAv94OnKdL-12">
          <mxGeometry relative="1" as="geometry">
            <Array as="points">
              <mxPoint x="1735" y="531" />
            </Array>
          </mxGeometry>
        </mxCell>
        <mxCell id="ezNgtbDygCYAv94OnKdL-14" style="edgeStyle=orthogonalEdgeStyle;rounded=0;orthogonalLoop=1;jettySize=auto;html=1;entryX=0;entryY=0.5;entryDx=0;entryDy=0;" edge="1" parent="1" source="ezNgtbDygCYAv94OnKdL-17" target="ezNgtbDygCYAv94OnKdL-25">
          <mxGeometry relative="1" as="geometry" />
        </mxCell>
        <mxCell id="ezNgtbDygCYAv94OnKdL-15" style="edgeStyle=orthogonalEdgeStyle;rounded=0;orthogonalLoop=1;jettySize=auto;html=1;entryX=0;entryY=0.5;entryDx=0;entryDy=0;" edge="1" parent="1" source="ezNgtbDygCYAv94OnKdL-17" target="ezNgtbDygCYAv94OnKdL-24">
          <mxGeometry relative="1" as="geometry" />
        </mxCell>
        <mxCell id="ezNgtbDygCYAv94OnKdL-16" style="edgeStyle=orthogonalEdgeStyle;rounded=0;orthogonalLoop=1;jettySize=auto;html=1;entryX=0;entryY=0.5;entryDx=0;entryDy=0;" edge="1" parent="1" source="ezNgtbDygCYAv94OnKdL-17" target="ezNgtbDygCYAv94OnKdL-23">
          <mxGeometry relative="1" as="geometry" />
        </mxCell>
        <mxCell id="ezNgtbDygCYAv94OnKdL-17" value="Экран с камерой" style="rounded=1;whiteSpace=wrap;html=1;" vertex="1" parent="1">
          <mxGeometry x="1675" y="265" width="120" height="60" as="geometry" />
        </mxCell>
        <mxCell id="ezNgtbDygCYAv94OnKdL-18" style="edgeStyle=orthogonalEdgeStyle;rounded=0;orthogonalLoop=1;jettySize=auto;html=1;entryX=0;entryY=0.5;entryDx=0;entryDy=0;" edge="1" parent="1" source="ezNgtbDygCYAv94OnKdL-19" target="ezNgtbDygCYAv94OnKdL-21">
          <mxGeometry relative="1" as="geometry" />
        </mxCell>
        <mxCell id="ezNgtbDygCYAv94OnKdL-19" value="Экран кабинета автора" style="rounded=1;whiteSpace=wrap;html=1;" vertex="1" parent="1">
          <mxGeometry x="1540" y="415" width="120" height="60" as="geometry" />
        </mxCell>
        <mxCell id="ezNgtbDygCYAv94OnKdL-20" style="edgeStyle=orthogonalEdgeStyle;rounded=0;orthogonalLoop=1;jettySize=auto;html=1;entryX=1;entryY=0.5;entryDx=0;entryDy=0;" edge="1" parent="1" source="ezNgtbDygCYAv94OnKdL-21" target="ezNgtbDygCYAv94OnKdL-22">
          <mxGeometry relative="1" as="geometry">
            <Array as="points">
              <mxPoint x="1900" y="655" />
            </Array>
          </mxGeometry>
        </mxCell>
        <mxCell id="ezNgtbDygCYAv94OnKdL-21" value="Экран добавления авторского стикера" style="rounded=1;whiteSpace=wrap;html=1;" vertex="1" parent="1">
          <mxGeometry x="1840" y="415" width="120" height="60" as="geometry" />
        </mxCell>
        <mxCell id="ezNgtbDygCYAv94OnKdL-22" value="Экран рассылки оповещений" style="rounded=1;whiteSpace=wrap;html=1;" vertex="1" parent="1">
          <mxGeometry x="1555" y="625" width="120" height="60" as="geometry" />
        </mxCell>
        <mxCell id="ezNgtbDygCYAv94OnKdL-23" value="Загрузка из файловой системы" style="rounded=1;whiteSpace=wrap;html=1;" vertex="1" parent="1">
          <mxGeometry x="1840" y="335" width="120" height="60" as="geometry" />
        </mxCell>
        <mxCell id="ezNgtbDygCYAv94OnKdL-24" value="Экран с Object detection" style="rounded=1;whiteSpace=wrap;html=1;" vertex="1" parent="1">
          <mxGeometry x="1840" y="265" width="120" height="60" as="geometry" />
        </mxCell>
        <mxCell id="ezNgtbDygCYAv94OnKdL-25" value="Экран с фото" style="rounded=1;whiteSpace=wrap;html=1;" vertex="1" parent="1">
          <mxGeometry x="1840" y="195" width="120" height="60" as="geometry" />
        </mxCell>
        <mxCell id="ezNgtbDygCYAv94OnKdL-26" style="edgeStyle=orthogonalEdgeStyle;rounded=0;orthogonalLoop=1;jettySize=auto;html=1;entryX=0.5;entryY=0;entryDx=0;entryDy=0;" edge="1" parent="1" source="ezNgtbDygCYAv94OnKdL-27" target="ezNgtbDygCYAv94OnKdL-9">
          <mxGeometry relative="1" as="geometry" />
        </mxCell>
        <mxCell id="ezNgtbDygCYAv94OnKdL-27" value="Уведомления" style="rounded=1;whiteSpace=wrap;html=1;" vertex="1" parent="1">
          <mxGeometry x="1435" y="152" width="120" height="60" as="geometry" />
        </mxCell>
        <mxCell id="ezNgtbDygCYAv94OnKdL-28" style="edgeStyle=orthogonalEdgeStyle;rounded=0;orthogonalLoop=1;jettySize=auto;html=1;entryX=0.5;entryY=0;entryDx=0;entryDy=0;" edge="1" parent="1" source="ezNgtbDygCYAv94OnKdL-30" target="ezNgtbDygCYAv94OnKdL-9">
          <mxGeometry relative="1" as="geometry" />
        </mxCell>
        <mxCell id="ezNgtbDygCYAv94OnKdL-29" style="edgeStyle=orthogonalEdgeStyle;rounded=0;orthogonalLoop=1;jettySize=auto;html=1;entryX=0.5;entryY=0;entryDx=0;entryDy=0;" edge="1" parent="1" source="ezNgtbDygCYAv94OnKdL-30" target="ezNgtbDygCYAv94OnKdL-27">
          <mxGeometry relative="1" as="geometry" />
        </mxCell>
        <mxCell id="ezNgtbDygCYAv94OnKdL-30" value="Юзер" style="shape=umlActor;verticalLabelPosition=bottom;verticalAlign=top;html=1;outlineConnect=0;" vertex="1" parent="1">
          <mxGeometry x="1325" y="-5" width="30" height="60" as="geometry" />
        </mxCell>
        <mxCell id="ezNgtbDygCYAv94OnKdL-31" style="edgeStyle=orthogonalEdgeStyle;rounded=0;orthogonalLoop=1;jettySize=auto;html=1;entryX=0;entryY=0.5;entryDx=0;entryDy=0;" edge="1" parent="1" source="ezNgtbDygCYAv94OnKdL-32" target="ezNgtbDygCYAv94OnKdL-9">
          <mxGeometry relative="1" as="geometry" />
        </mxCell>
        <mxCell id="ezNgtbDygCYAv94OnKdL-32" value="Экран настроек" style="rounded=1;whiteSpace=wrap;html=1;" vertex="1" parent="1">
          <mxGeometry x="1180" y="170" width="120" height="60" as="geometry" />
        </mxCell>
      </root>
    </mxGraphModel>
  </diagram>
</mxfile>
